<?xml version="1.0" ?><svg height="32" id="icon" viewBox="0 0 32 32" width="32" xmlns="http://www.w3.org/2000/svg"><defs><style>.cls-1{fill:none;}</style></defs><title/><rect height="2" width="6" x="8" y="18"/><rect height="2" width="10" x="8" y="22"/><path d="M26,4H6A2.0025,2.0025,0,0,0,4,6V26a2.0025,2.0025,0,0,0,2,2H26a2.0025,2.0025,0,0,0,2-2V6A2.0025,2.0025,0,0,0,26,4ZM18,6v4H14V6ZM6,26V6h6v6h8V6h6l.0012,20Z"/><rect class="cls-1" data-name="&lt;Transparent Rectangle&gt;" height="32" id="_Transparent_Rectangle_" width="32"/></svg>