<svg id="Layer_1" data-name="Layer 1" xmlns="http://www.w3.org/2000/svg" viewBox="0 0 64 64"><defs><style>.cls-1{fill:#010101;}</style></defs><path class="cls-1" d="M52.76,17.08A10.87,10.87,0,0,0,54,12a11,11,0,0,0-22,0,10.87,10.87,0,0,0,1.24,5.08A5,5,0,0,0,29,22V33H23.13a9,9,0,0,0-4.47,1.19L13.73,37H7V55h8.7l3.73,2.49a9,9,0,0,0,5,1.51H29.1A5,5,0,0,0,34,63H52a5,5,0,0,0,5-5V22A5,5,0,0,0,52.76,17.08ZM43,3a9,9,0,0,1,7.48,14H44v-.18A3,3,0,0,0,43,11a1,1,0,1,1,1-1h2a3,3,0,0,0-2-2.82V5H42V7.18A3,3,0,0,0,43,13a1,1,0,1,1-1,1H40a3,3,0,0,0,2,2.82V17H35.52A9,9,0,0,1,43,3ZM34,19H52a3,3,0,0,1,3,3v3H31V22A3,3,0,0,1,34,19Zm-3,8H55V53H31V41h2V51H53V29H33v4H31Zm4,6V31H51V49H35V41a4,4,0,0,0,0-8ZM20.54,55.82,16.3,53H9V39h5.27l5.38-3.08A7.07,7.07,0,0,1,23.13,35H35a2,2,0,0,1,0,4H22v1a5,5,0,0,1-5,5v2a7,7,0,0,0,6.93-6H29V57H24.42A7,7,0,0,1,20.54,55.82ZM52,61H34a3,3,0,0,1-3-3V55H55v3A3,3,0,0,1,52,61Z"/><rect class="cls-1" x="40" y="21" width="6" height="2"/><rect class="cls-1" x="41" y="57" width="4" height="2"/><rect class="cls-1" x="48" y="21" width="2" height="2"/><rect class="cls-1" x="36" y="21" width="2" height="2"/><path class="cls-1" d="M43,43a1,1,0,0,1-1-1H40a3,3,0,0,0,2,2.82V47h2V44.82A3,3,0,0,0,43,39a1,1,0,1,1,1-1h2a3,3,0,0,0-2-2.82V33H42v2.18A3,3,0,0,0,43,41a1,1,0,0,1,0,2Z"/></svg>